<?xml version="1.0" encoding="UTF-8"?>
<svg width="700pt" height="700pt" version="1.1" viewBox="0 0 700 700" xmlns="http://www.w3.org/2000/svg">
 <style type="text/css">
	.d{fill:#F46A24;}
</style>
 <path class='d' d="m560 157.5c0 4.6406-1.8438 9.0938-5.125 12.375s-7.7344 5.125-12.375 5.125h-342.82l92.75 92.574c4.4375 4.4414 6.1719 10.91 4.5469 16.973-1.625 6.0664-6.3594 10.801-12.426 12.426-6.0625 1.625-12.531-0.10938-16.973-4.5469l-122.5-122.5c-3.3125-3.2852-5.1758-7.7578-5.1758-12.426s1.8633-9.1406 5.1758-12.426l122.5-122.5c4.4414-4.4375 10.91-6.1719 16.973-4.5469 6.0664 1.625 10.801 6.3594 12.426 12.426 1.625 6.0625-0.10938 12.531-4.5469 16.973l-92.75 92.574h342.82c4.6406 0 9.0938 1.8438 12.375 5.125s5.125 7.7344 5.125 12.375zm-5.0742 232.57-122.5-122.5c-4.4414-4.4375-10.91-6.1719-16.973-4.5469-6.0664 1.625-10.801 6.3594-12.426 12.426-1.625 6.0625 0.10938 12.531 4.5469 16.973l92.75 92.574h-342.82c-6.2539 0-12.031 3.3359-15.156 8.75s-3.125 12.086 0 17.5 8.9023 8.75 15.156 8.75h342.82l-92.75 92.574c-4.4375 4.4414-6.1719 10.91-4.5469 16.973 1.625 6.0664 6.3594 10.801 12.426 12.426 6.0625 1.625 12.531-0.10938 16.973-4.5469l122.5-122.5c3.3125-3.2852 5.1758-7.7578 5.1758-12.426s-1.8633-9.1406-5.1758-12.426z"/>
</svg>
