<svg xmlns="http://www.w3.org/2000/svg" viewBox="0 0 224 700">
<defs>
<style>.a{fill:none;stroke:#000;stroke-miterlimit:10;}.b{fill:#363636;}</style>
</defs>
<title>sole</title>
<path class="a" d="M125.74,1.38c99.6-.86,99.54,187.51,96.84,213.24-5.66,53.86-37.08,90.15-36.51,174.39.24,35,11.78,178.19,8.55,217.06.52,9.38-7.56,91.85-88.27,92.55-53.21.46-80-61.54-80.85-87.25C23.33,549,39.36,468.05,23.84,381.15,10.75,307.86.79,276,.71,210,.65,159.74,57.5,2,125.74,1.38Z"/>
<path class="b" d="M0,0V700H224V0ZM222.58,214.62c-5.66,53.86-37.08,90.15-36.51,174.39.24,35,11.78,178.19,8.55,217.06.52,9.38-7.56,91.85-88.27,92.55-53.21.46-80-61.54-80.85-87.25C23.33,549,39.36,468.05,23.84,381.15,10.75,307.86.79,276,.71,210,.65,159.74,57.5,2,125.74,1.38,225.34.52,225.28,188.89,222.58,214.62Z"/>
</svg>